<svg xmlns="http://www.w3.org/2000/svg" viewBox="0 0 24 24" fill="none" stroke="currentColor" stroke-width="1.5" stroke-linecap="round" stroke-linejoin="round">
  <path d="M12 15.5a3.5 3.5 0 1 0 0-7 3.5 3.5 0 0 0 0 7z"/>
  <path d="M19.4 15a1.65 1.65 0 0 0 .33 1.82l.06.06a2 2 0 1 1-2.83 2.83l-.06-.06a1.65 1.65 0 0 0-1.82-.33 1.65 1.65 0 0 0-1 1.51V21a2 2 0 1 1-4 0v-.09a1.65 1.65 0 0 0-1-1.51 1.65 1.65 0 0 0-1.82.33l-.06.06A2 2 0 1 1 2.5 17.88l.06-.06a1.65 1.65 0 0 0 .33-1.82 1.65 1.65 0 0 0-1.51-1H3a2 2 0 1 1 0-4h.09c.7 0 1.26-.4 1.51-1a1.65 1.65 0 0 0-.33-1.82L3.35 4.5A2 2 0 1 1 6.18 1.67l.06.06c.5.5 1.08.86 1.82.33.7-.4 1.51-.4 2.21 0 .74.53 1.32.17 1.82-.33l.06-.06A2 2 0 1 1 17.5 3.35l-.06.06c-.5.5-.86 1.08-.33 1.82.4.7.4 1.51 0 2.21-.53.74-.17 1.32.33 1.82l.06.06A2 2 0 0 1 19.4 15z"/>
</svg>